<?xml version="1.0" encoding="utf-8"?><!--Generator: Adobe Illustrator 19.2.1, SVG Export Plug-In . SVG Version: 6.00 Build 0)--><svg version="1.1" id="Laag_1" xmlns="http://www.w3.org/2000/svg" xmlns:xlink="http://www.w3.org/1999/xlink" x="0px" y="0px" viewBox="0 0 60.9 60.9" style="enable-background:new 0 0 60.9 60.9" xml:space="preserve"><style type="text/css">.st0{fill:#FFFFFF;}
	.st1{fill:#010202;}</style><g><circle class="st0" cx="29.5" cy="30.3" r="25.1"/><path class="st1" d="M30.5,0C13.6,0,0,13.6,0,30.5c0,16.8,13.6,30.5,30.5,30.5s30.5-13.6,30.5-30.5C60.9,13.6,47.3,0,30.5,0z
		 M40,45.5c-6.2,4.4-12.3,4.9-17.6,1.6l6.6-7.8c2.4,1.4,4.6,1.1,7.2-0.7c1.9-1.3,2.6-3.2,1.8-4.3c-1.2-1.7-3.3-0.3-7.6,1.4
		c-3.6,1.5-6.8,3-10.5,3c-3,0-5.6-1.4-7.4-4c-1.7-2.4-2.2-5.5-1.4-8.6c1.1-4,3.9-7.8,8.2-10.8c8-5.6,15.6-6.1,21-1.6l-7.8,7.8
		c-2.4-1.9-5.2-1.8-8.6,0.6c-2.2,1.6-3,3.4-2.2,4.5c1.5,2.1,3.7,0.5,8.6-1.5c8.3-3.4,13.4-3.5,16.8,1.3C50.8,31.9,48.4,39.6,40,45.5
		z"/></g></svg>