<svg width="427" height="90" viewBox="0 0 427 90" fill="none" xmlns="http://www.w3.org/2000/svg">
<g clip-path="url(#clip0_2015_4778)">
<path d="M109.67 0L82.2502 85.9243L54.8335 0H0V90H41.1236L2.68947 3.34677L82.2502 90L161.811 3.34677L123.377 90H164.503V0H109.67Z" fill="black"/>
<path d="M203.623 39.2157V65.4253H193.503V25.0811H205.495L224.467 55.9247L243.44 25.0811H255.431V65.4253H245.309V39.2157L229.361 65.4253H219.574L203.623 39.2157Z" fill="black"/>
<path d="M264.776 25.0811H275.222V57.2119H311.19V65.4253H264.776V25.0811Z" fill="black"/>
<path d="M344.459 23.9053C353.04 23.9053 360.904 24.9661 368.163 27.1466V35.6391L367.834 35.7508C360.244 33.4617 352.49 32.2862 344.681 32.2862C333.518 32.2862 328.789 33.6819 328.789 36.1975C328.789 44.2992 372.126 33.9611 372.126 52.7949C372.126 62.0163 364.042 66.0951 344.462 66.0951C334.452 66.0951 325.324 64.8668 318.559 62.6863V53.744L318.889 53.5765C326.313 56.427 334.177 57.7111 345.069 57.7111C356.728 57.7111 361.676 55.8128 361.676 53.074C361.676 44.9723 318.339 55.6453 318.339 36.5355C318.339 28.2632 327.305 23.9053 344.462 23.9053" fill="black"/>
<path d="M377.893 25.0811H426.505V33.2945H388.339V41.2287H424.087V49.2188H388.339V57.2119H426.505V65.4253H377.893V25.0811Z" fill="black"/>
</g>
<defs>
<clipPath id="clip0_2015_4778">
<rect width="427" height="90" fill="white"/>
</clipPath>
</defs>
</svg>
