<svg xmlns="http://www.w3.org/2000/svg" viewBox="0 0 973 1728" role="img" aria-labelledby="title desc">
  <title id="title">Netflix monogram</title>
  <desc id="desc">Black background with the red Netflix N monogram.</desc>
  <defs>
    <linearGradient id="leftStem" x1="0" y1="0" x2="1" y2="1">
      <stop offset="0" stop-color="#c52b27"/>
      <stop offset="1" stop-color="#ab2725"/>
    </linearGradient>
    <linearGradient id="diagonal" x1="0" y1="0" x2="1" y2="1">
      <stop offset="0" stop-color="#e3212d"/>
      <stop offset="1" stop-color="#df1f28"/>
    </linearGradient>
    <linearGradient id="rightStem" x1="0" y1="0" x2="1" y2="1">
      <stop offset="0" stop-color="#b62b28"/>
      <stop offset="1" stop-color="#8f201d"/>
    </linearGradient>
    <linearGradient id="shadow" x1="0" y1="0" x2="0.9" y2="1">
      <stop offset="0" stop-color="#000" stop-opacity="0.22"/>
      <stop offset="1" stop-color="#000" stop-opacity="0"/>
    </linearGradient>
  </defs>

  <rect width="973" height="1728" fill="#000"/>

  <path
    d="M245 485h178l136 432v504c-111 0-208 13-314 18V485Z"
    fill="url(#leftStem)"
  />
  <path
    d="M421 485h173l300 954c-119-14-220-18-355-18L421 485Z"
    fill="url(#diagonal)"
  />
  <path
    d="M559 485h178v936c0-276 79-408 157-479V485H559Z"
    fill="url(#rightStem)"
  />
  <path
    d="M559 917 421 485H245l176 561 138-129Z"
    fill="url(#shadow)"
  />
  <path
    d="M737 1421V942c38 69 88 205 157 479H737Z"
    fill="url(#shadow)"
    opacity="0.32"
  />
</svg>
