<svg xml:space="preserve" style="enable-background:new 0 0 654.33 229.91;" viewBox="0 0 654.33 229.91" y="0px" x="0px" xmlns:xlink="http://www.w3.org/1999/xlink" xmlns="http://www.w3.org/2000/svg" id="RS_Combo_Logo_Primary_2024" version="1.1">
<style type="text/css">
	.st0{display:none;fill:#020000;}
	.st1{fill:#231F20;}
	.st2{fill:#DCA846;}
	.st3{fill:#FFFFFF;}
</style>
<rect height="231" width="654.48" class="st0" y="-1.26" x="-0.17"></rect>
<g>
	<g>
		<path d="M178.33,183.09l-48.15-34.94l-1.27-0.92l-49.32,35.91l18.83-58.07L49.1,89.27h60.98l0.48-1.51
			c0.27-0.83,4.62-14.32,9.24-28.59l9.05-28.01l18.89,58.11h60.97l-49.26,35.77L178.33,183.09z" class="st1"></path>
		<g>
			<g>
				<g>
					<g>
						<path d="M220.24,85.5H150.5l-21.61-66.47L107.41,85.5H37.66l56.42,40.96l-21.55,66.42l56.42-41.07l56.51,41.01
							l-21.58-66.37L220.24,85.5z M177.39,181.72l-47.2-34.25l-1.25-0.9l-48.35,35.2l18.46-56.93L50.73,89.75h59.77l0.47-1.48
							c0.26-0.81,4.53-14.03,9.06-28.02l8.87-27.46l18.52,56.96h59.76l-48.29,35.07L177.39,181.72z M116.23,108.36
							c0.6-0.18,1.37-0.27,2.29-0.27h3.66v7.06h-4.12c-0.83,0-1.51-0.09-2.06-0.27c-0.54-0.18-0.98-0.43-1.3-0.75
							c-0.32-0.32-0.54-0.7-0.66-1.15c-0.12-0.45-0.18-0.95-0.18-1.49c0-0.45,0.07-0.88,0.21-1.3c0.14-0.41,0.38-0.78,0.73-1.1
							C115.15,108.79,115.62,108.54,116.23,108.36z M143.91,110.21c0.14,0.41,0.21,0.85,0.21,1.3c0,0.54-0.06,1.04-0.18,1.49
							c-0.12,0.45-0.34,0.83-0.66,1.15c-0.32,0.32-0.75,0.57-1.3,0.75c-0.54,0.18-1.23,0.27-2.06,0.27h-4.12v-7.06h3.66
							c0.92,0,1.69,0.09,2.29,0.27c0.6,0.18,1.08,0.43,1.42,0.75C143.52,109.43,143.76,109.79,143.91,110.21z M194.38,93.83
							l-49.98,0.03l-15.51-47.63L113.5,93.87l-49.98,0.03l40.42,29.33L88.5,170.85l40.44-29.46l40.53,29.4l-15.48-47.58
							L194.38,93.83z M127.39,129.07h-5.22v-9.51h-4.97l-4.26,9.51h-5.71l5.15-10.75c-1.4-0.76-2.39-1.69-2.98-2.8
							c-0.59-1.11-0.89-2.48-0.89-4.12c0-0.88,0.14-1.77,0.43-2.68c0.28-0.91,0.79-1.74,1.53-2.48c0.73-0.75,1.75-1.35,3.03-1.81
							c1.29-0.46,2.93-0.69,4.92-0.69h8.98V129.07z M145.04,129.07l-4.26-9.51h-4.97v9.51h-5.22v-25.34h8.98
							c1.99,0,3.63,0.23,4.92,0.69c1.29,0.46,2.3,1.06,3.03,1.81c0.73,0.75,1.24,1.57,1.53,2.48c0.28,0.91,0.43,1.8,0.43,2.68
							c0,1.63-0.3,3-0.89,4.12c-0.59,1.11-1.59,2.05-2.98,2.8l5.15,10.75H145.04z" class="st2"></path>
					</g>
				</g>
			</g>
		</g>
	</g>
</g>
<g>
	<path d="M270.2,171.61v-28.33h20.29v6.27h-12.86v4.52h12.07v6.27h-12.07v5h13.7l-0.64,6.27H270.2z M312.77,171.61
		l-10.2-16.23v16.23h-7.23v-28.33h6.67l10.2,16.23v-16.23h7.23v28.33H312.77z M325.07,171.61v-28.33h20.29v6.27H332.5v4.52h12.07
		v6.27H332.5v5h13.7l-0.64,6.27H325.07z M368.51,160.3c1.38-0.79,2.42-1.88,3.14-3.25c0.71-1.38,1.07-2.98,1.07-4.8
		c0-2.94-0.96-5.17-2.88-6.69c-1.92-1.52-4.73-2.28-8.44-2.28h-11.2v28.33h7.27v-9.76h4.13l4.65,9.76h8.06L368.51,160.3z
		 M364.38,155.1c-0.66,0.56-1.72,0.83-3.18,0.83h-3.73v-6.79h3.49c1.48,0,2.59,0.27,3.31,0.81c0.73,0.54,1.09,1.38,1.09,2.52
		C365.37,153.67,365.04,154.54,364.38,155.1z M395.27,161.57h-4.53v-6.15h11.55v12.9c-1.61,1.3-3.47,2.29-5.58,2.98
		c-2.11,0.69-4.3,1.03-6.57,1.03c-4.45,0-7.88-1.28-10.28-3.83c-2.41-2.55-3.61-6.18-3.61-10.89c0-3.17,0.56-5.89,1.67-8.15
		c1.11-2.26,2.7-3.98,4.76-5.14c2.06-1.16,4.51-1.75,7.35-1.75c3.33,0,6.04,0.81,8.12,2.42c2.08,1.61,3.36,3.88,3.83,6.79
		l-7.62,0.75c-0.29-1.22-0.79-2.11-1.49-2.68c-0.7-0.57-1.67-0.85-2.92-0.85c-1.96,0-3.41,0.69-4.37,2.08
		c-0.95,1.39-1.43,3.5-1.43,6.33c0,2.96,0.53,5.12,1.59,6.47c1.06,1.35,2.75,2.02,5.08,2.02c1.67,0,3.15-0.34,4.45-1.03V161.57z
		 M412.9,171.61v-10.99l-9.53-17.34h8.26l5.12,10.83l5.2-10.83h8.02l-9.41,17.34v10.99H412.9z M460.98,146.8
		c-2.43-2.35-6-3.53-10.68-3.53h-11.16v28.33h10.72c4.74,0,8.39-1.25,10.94-3.75c2.55-2.5,3.83-6.08,3.83-10.73
		C464.64,152.6,463.42,149.16,460.98,146.8z M449.98,165.18h-3.22V149.7h3.61c2.14,0,3.74,0.63,4.78,1.88
		c1.04,1.26,1.57,3.18,1.57,5.77C456.73,162.57,454.48,165.18,449.98,165.18z M487.74,160.3c1.38-0.79,2.42-1.88,3.14-3.25
		c0.71-1.38,1.07-2.98,1.07-4.8c0-2.94-0.96-5.17-2.88-6.69c-1.92-1.52-4.73-2.28-8.44-2.28h-11.2v28.33h7.27v-9.76h4.13l4.65,9.76
		h8.06L487.74,160.3z M483.61,155.1c-0.66,0.56-1.72,0.83-3.18,0.83h-3.73v-6.79h3.49c1.48,0,2.59,0.27,3.31,0.81
		c0.73,0.54,1.09,1.38,1.09,2.52C484.61,153.67,484.28,154.54,483.61,155.1z M496.88,171.61v-28.33h7.62v28.33H496.88z
		 M527.57,171.61l-10.2-16.23v16.23h-7.23v-28.33h6.67l10.2,16.23v-16.23h7.23v28.33H527.57z M557.11,171.61l-6.79-12.26l-2.82,3.13
		v9.13h-7.62v-28.33h7.62v10.28l8.62-10.28h8.3l-9.01,10.71l10.05,17.62H557.11z" class="st3"></path>
	<path d="M599.45,76.84c-3.45-2.89-8.4-4.33-14.87-4.33h-21.55l-2.16,10.21l-1.53,7.23l-13.21,0.05l-2.43-17.48H526.2
		l-9.62,17.36l-19.88-0.04l0.94-4.37h12.83l7.25-12.96L468.7,72.5l-0.66,3.05c-0.01-0.01-0.01-0.01-0.02-0.02
		c-3.87-2.97-9.28-4.45-16.22-4.45c-4.93,0-9.21,0.77-12.84,2.31c-1.12,0.47-2.15,1.01-3.1,1.61l2.56-2.48h-17.1l-20.99,20.12
		l4.22-20.12h-15.27l-7.62,36.02h-14.97c-0.79,3.08-2.02,5.35-3.66,6.84c-1.64,1.48-3.76,2.23-6.36,2.23
		c-6.36,0-9.54-4.24-9.54-12.72c0-4.08,0.61-7.7,1.83-10.85c1.22-3.15,2.86-5.58,4.93-7.28c2.07-1.7,4.4-2.54,7-2.54
		c4.98,0,7.71,2.94,8.19,8.83l15.19-1.99c-0.37-6.2-2.53-11.08-6.48-14.63c-3.95-3.55-9.21-5.33-15.78-5.33
		c-6.04,0-11.41,1.51-16.1,4.53c-4.69,3.02-8.32,7.1-10.89,12.24c-0.59,1.19-1.11,2.41-1.57,3.67c-0.44-3.27-1.33-6.21-2.7-8.8
		c-2.02-3.79-4.87-6.68-8.55-8.67c-3.68-1.99-8.02-2.98-13-2.98c-6.15,0-11.65,1.56-16.5,4.69c-4.4,2.84-7.88,6.55-10.45,11.12
		c-0.44-4.23-2.11-7.59-5.04-10.04c-3.45-2.89-8.4-4.33-14.87-4.33h-21.55l-12.01,56.78h14.55l4.14-19.56h8.51l5.65,19.56h15.43
		l-7.47-22.03c3.34-1.3,6.05-3.13,8.15-5.46c-0.11,1.22-0.17,2.45-0.17,3.7c0,5.25,1.01,9.77,3.02,13.56
		c2.01,3.79,4.86,6.68,8.55,8.67c3.68,1.99,8.02,2.98,13,2.98c6.15,0,11.65-1.56,16.5-4.69c4.85-3.13,8.59-7.3,11.21-12.52
		c0.61-1.2,1.13-2.44,1.6-3.7c0.69,5.89,2.73,10.62,6.14,14.2c4.27,4.48,10.24,6.72,17.93,6.72c7.26,0,13.27-1.95,18.01-5.85
		c2.81-2.3,4.97-5.17,6.53-8.56l-2.74,12.98h15.27l3.74-17.41l7.47-6.92l8.59,24.33h16.14l-2.53-6.57c1.85,2.46,4.33,4.36,7.44,5.7
		c3.58,1.54,7.88,2.31,12.92,2.31c7.58,0,13.58-1.76,18.01-5.29c4.43-3.53,6.64-8.31,6.64-14.35c0-4.4-1.27-7.9-3.82-10.5
		c-2.54-2.6-6.55-4.5-12.01-5.73l-6.28-1.43c-1.91-0.43-3.33-1.05-4.26-1.87c-0.93-0.82-1.39-1.9-1.39-3.22
		c0-1.64,0.68-2.92,2.03-3.82c1.35-0.9,3.27-1.35,5.76-1.35c2.65,0,4.65,0.54,6,1.63c1.35,1.09,2.21,2.85,2.58,5.29l14.87-1.67
		c-0.08-1.03-0.23-2-0.43-2.94h8.25l-9.31,43.81h15.27l7.52-35.13l12.56,10.59l-13.62,24.55l15.5-0.02l1.44-2.75l14.98-8.43
		l8.66,7.08l0.39,4.12l15.91,0l0,0h13.99l4.14-19.56h8.51l5.65,19.56h15.43l-7.47-22.03c4.08-1.59,7.24-3.95,9.46-7.08
		c2.23-3.13,3.34-6.78,3.34-10.97C604.61,83.86,602.89,79.73,599.45,76.84z M264.99,95.97c-1.62,1.27-3.96,1.91-7.04,1.91H250
		l2.86-13.6h7c5.04,0,7.55,2.04,7.55,6.12C267.41,92.84,266.6,94.7,264.99,95.97z M315.86,107.46c-1.33,3.21-3.1,5.7-5.33,7.47
		c-2.23,1.78-4.72,2.66-7.47,2.66c-3.07,0-5.45-1.06-7.12-3.18c-1.67-2.12-2.5-5.14-2.5-9.06c0-4.14,0.66-7.8,1.99-11.01
		c1.32-3.21,3.1-5.7,5.33-7.48c2.23-1.77,4.72-2.66,7.47-2.66c3.07,0,5.45,1.06,7.12,3.18c1.67,2.12,2.5,5.14,2.5,9.06
		C317.85,100.58,317.18,104.25,315.86,107.46z M443.93,106.07l5.96,1.35c1.91,0.43,3.33,1.06,4.25,1.91
		c0.93,0.85,1.39,1.96,1.39,3.34c0,1.86-0.74,3.29-2.23,4.29c-1.48,1.01-3.55,1.51-6.2,1.51c-2.97,0-5.3-0.68-7-2.03
		c-1.7-1.35-2.62-3.3-2.78-5.84h-15.19c0.02,0.95,0.1,1.86,0.21,2.74l-7.07-18.41l15.09-14.63c-1.72,2.68-2.59,5.78-2.59,9.3
		c0,4.29,1.33,7.81,3.98,10.54C434.42,102.88,438.47,104.85,443.93,106.07z M551.36,127.68l-2.99-21.58l8.72-5.5L551.36,127.68z
		 M587.24,95.97c-1.62,1.27-3.96,1.91-7.04,1.91h-7.95l2.86-13.6h7c5.04,0,7.55,2.04,7.55,6.12
		C589.67,92.84,588.86,94.7,587.24,95.97z M610.87,80.81c-0.74,0-1.39-0.16-1.97-0.47c-0.58-0.32-1.04-0.77-1.37-1.36
		c-0.33-0.59-0.5-1.28-0.5-2.06c0-0.75,0.16-1.42,0.47-2.02c0.32-0.6,0.77-1.06,1.36-1.4c0.59-0.34,1.27-0.51,2.04-0.51
		c1.13,0,2.06,0.36,2.77,1.09c0.71,0.73,1.07,1.67,1.07,2.83c0,1.16-0.36,2.1-1.08,2.83C612.95,80.45,612.01,80.81,610.87,80.81z
		 M610.88,79.83c0.88,0,1.56-0.26,2.04-0.77c0.48-0.51,0.72-1.23,0.72-2.16s-0.24-1.64-0.72-2.16c-0.48-0.51-1.16-0.77-2.04-0.77
		c-0.88,0-1.56,0.26-2.04,0.77c-0.48,0.51-0.72,1.23-0.72,2.16s0.24,1.64,0.72,2.16C609.33,79.57,610.01,79.83,610.88,79.83z
		 M611.46,78.74l-0.54-1.21h-0.53v1.21h-1.11v-3.77h1.61c1.05,0,1.58,0.42,1.58,1.25c0,0.46-0.17,0.8-0.51,1.04l0.72,1.49H611.46z
		 M610.83,76.67c0.19,0,0.32-0.03,0.4-0.1c0.08-0.06,0.12-0.17,0.12-0.32c0-0.27-0.19-0.4-0.58-0.4h-0.39v0.82H610.83z
		 M528.06,107.94l-10.89,6.17l5.4-10.81l-8.7-7.36h12.51l6.24-12.03l1.58,12.03l13.2,0.09l-12.22,7.4l1.55,11.84L528.06,107.94z" class="st2"></path>
</g>
</svg>
