<svg xmlns="http://www.w3.org/2000/svg" viewBox="0 0 453.3 61.8"><defs><style>.cls-1{fill:#fff;}</style></defs><title>Asset 11</title><g id="Layer_2" data-name="Layer 2"><g id="Laag_1" data-name="Laag 1"><path class="cls-1" d="M86.3,34.8c.3,3.5,3,4.7,6.1,4.7,2.6,0,4.3-.9,4.3-2.5s-1.6-1.9-3.8-2.3l-5.1-.9c-4.6-.8-7.7-3.4-7.7-8.3,0-5.7,4.4-9.1,11.4-9.1,7.7,0,11.9,3.8,12,10l-6.9.1c-.2-2.9-2.3-4.2-5.2-4.2-2.5,0-3.9,1-3.9,2.5,0,1.3,1.1,1.8,2.8,2.1l5.3.9c5.8,1,8.5,4.1,8.5,8.6,0,5.9-5.1,8.9-11.6,8.9-7.6,0-13-3.7-13-10.4Z"/><path class="cls-1" d="M116,44.9h-7.5V17h12.3c7.3,0,11.5,3.4,11.5,9.6s-4.2,9.6-11.5,9.6H116Zm4.4-14.7c3.4,0,4.6-1.2,4.6-3.5s-1.3-3.6-4.6-3.6H116v7.1Z"/><path class="cls-1" d="M143.3,17.1V45h-7.5V17.1Z"/><path class="cls-1" d="M167,32.5V17.1h6.9V45h-6l-12-16.5V45H149V17.1h7.2Z"/><path class="cls-1" d="M197.5,32.5V17.1h6.9V45h-6l-12-16.5V45h-6.9V17.1h7.2Z"/><path class="cls-1" d="M218.3,17.1V45h-7.5V17.1Z"/><path class="cls-1" d="M242.8,32.5V17.1h6.9V45h-6l-12-16.5V45h-6.9V17.1H232Z"/><path class="cls-1" d="M254.2,17.1h7.5v6.2c0,4.3-2.5,6.1-7.5,6.3V26.2c2.1-.1,3.3-.7,3.4-2.4h-3.4Z"/><path class="cls-1" d="M293.7,45.1l-5.9-11.4h-9.5V45.1h-2.7V18h10.2c6.8,0,10.1,3.1,10.1,7.8a7.23,7.23,0,0,1-5.5,7.3l6.4,12ZM286,31.5c5,0,7.2-2,7.2-5.6,0-3.4-2.2-5.5-7.2-5.5h-7.7V31.5Z"/><path class="cls-1" d="M319.7,45.1H300.9V18h18.4v2.3H303.6v9.6h12.6v2.3H303.6V42.8h16.1Z"/><path class="cls-1" d="M334.8,17.5c6.7,0,10.8,3.6,12.1,9.1l-2.5.6c-.9-4.4-4.3-7.5-9.5-7.5-5.9,0-10.3,4.5-10.3,11.8s4.4,11.8,10.3,11.8c5,0,8.3-2.8,9.4-6.9l2.6.4c-1.4,5.4-5.5,8.8-12,8.8-7.4,0-13.2-5.7-13.2-14.1C321.7,23.3,327.4,17.5,334.8,17.5Z"/><path class="cls-1" d="M363.6,45.7c-7.9,0-13.3-5.7-13.3-14.1s5.4-14.1,13.3-14.1,13.3,5.7,13.3,14.1S371.5,45.7,363.6,45.7Zm0-25.9c-6.4,0-10.5,4.6-10.5,11.8s4.1,11.8,10.5,11.8,10.5-4.6,10.5-11.8S369.9,19.8,363.6,19.8Z"/><path class="cls-1" d="M399.2,45.1l-5.9-11.4h-9.5V45.1h-2.7V18h10.2c6.8,0,10.1,3.1,10.1,7.8a7.23,7.23,0,0,1-5.5,7.3l6.4,12Zm-7.7-13.6c5,0,7.2-2,7.2-5.6,0-3.4-2.2-5.5-7.2-5.5h-7.7V31.5Z"/><path class="cls-1" d="M406.5,18H416c8.4,0,13.7,5.1,13.7,13.5S424.4,45,416,45h-9.5Zm9.4,24.9c7.1,0,11-4.2,11-11.3s-3.8-11.3-11-11.3h-6.7V42.8l6.7.1Z"/><path class="cls-1" d="M434.6,35.2c.2,5.4,3.8,8.3,8.8,8.3,4.5,0,7.3-2,7.3-5.3,0-2.8-1.6-4.2-5.5-5l-5.5-1.1c-3.9-.8-6.5-2.8-6.5-6.9,0-4.5,3.6-7.7,9.3-7.7,6.6,0,10.5,3.6,10.5,9.7l-2.5.2c-.1-4.9-3-7.8-8-7.8-4.3,0-6.7,2.1-6.7,5.5,0,3.1,1.9,4,5.5,4.7l4.8.9c4.8.9,7.2,2.9,7.2,7.2,0,4.8-4.1,7.7-9.9,7.7-6.5,0-11.2-3.7-11.2-10.2Z"/><path class="cls-1" d="M30.9,0A30.9,30.9,0,1,0,61.8,30.9,30.86,30.86,0,0,0,30.9,0Zm9.7,46.2c-6.3,4.4-12.5,4.9-17.9,1.6l6.7-7.9c2.4,1.4,4.6,1.2,7.3-.7,1.9-1.4,2.6-3.3,1.8-4.4-1.2-1.7-3.4-.4-7.7,1.5-3.7,1.5-6.9,3.1-10.7,3a8.82,8.82,0,0,1-7.5-4.1,10.45,10.45,0,0,1-1.4-8.7c1.1-4.1,3.9-7.9,8.3-11,8.2-5.7,15.8-6.2,21.3-1.6l-7.9,7.9c-2.4-2-5.3-1.8-8.7.7-2.3,1.6-3,3.4-2.2,4.6,1.5,2.1,3.7.5,8.7-1.5,8.5-3.4,13.6-3.5,17,1.3C51.5,32.4,49.2,40.2,40.6,46.2Z"/></g></g></svg>